<svg width="146" height="51" viewBox="0 0 146 51" fill="none" xmlns="http://www.w3.org/2000/svg">
<path d="M8.00613 24.3047C12.839 36.0281 9.72175 36.0281 8.86394 36.8859L7.14832 37.7437L12.5811 40.6916L12.5531 40.1198C12.3609 38.1274 12.6492 36.3958 12.8671 35.7422C13.0958 35.0559 14.0108 33.3662 14.5827 32.3109L12.0093 31.2557L8.00613 24.3047Z" fill="#79A6FE"/>
<path d="M12.5811 40.4057C12.572 40.3149 12.5627 40.2194 12.5531 40.1198M12.5531 40.1198C12.3609 38.1274 12.6492 36.3958 12.8671 35.7422C13.0958 35.0559 14.0108 33.3662 14.5827 32.3109L12.0093 31.2557L8.00613 24.3047C12.839 36.0281 9.72175 36.0281 8.86394 36.8859L7.14832 37.7437L12.5811 40.6916L12.5531 40.1198Z" stroke="#79A6FE"/>
<path d="M13.225 43.5509C13.225 47.0648 10.3764 49.9134 6.8625 49.9134C3.34859 49.9134 0.5 47.0648 0.5 43.5509C0.5 40.037 3.34859 37.1884 6.8625 37.1884C10.3764 37.1884 13.225 40.037 13.225 43.5509ZM19.6374 18.3598L32.1445 40.0227C33.9234 43.104 32.8677 47.044 29.7864 48.823C26.7052 50.6019 22.7652 49.5462 20.9862 46.4649L8.47912 24.802C6.70015 21.7208 7.75587 17.7808 10.8371 16.0018C13.9184 14.2228 17.8584 15.2785 19.6374 18.3598ZM34.3031 3.72227L55.5913 40.5946C57.3703 43.6759 56.3146 47.6159 53.2333 49.3949C50.1521 51.1738 46.2121 50.1181 44.4331 47.0368L23.1448 10.1645C21.3659 7.08323 22.4216 3.14322 25.5028 1.36425C28.5841 -0.414717 32.5241 0.641004 34.3031 3.72227Z" fill="#79A6FE" stroke="#79A6FE"/>
<path d="M27.45 27.5381C27.6787 29.3681 26.7828 30.0163 26.3062 30.1116C27.3546 33.6382 31.4531 43.2334 32.5968 43.4622C34.0265 43.7481 32.2701 38.6013 31.1671 36.0278C30.3093 34.0263 27.7359 24.0184 28.3078 22.5888C28.7653 21.445 29.7375 20.6757 30.3093 20.6756C28.0218 16.5772 21.2629 4.70303 22.3031 8.8638C23.1609 12.2951 27.164 25.2506 27.45 27.5381Z" fill="#79A6FE" stroke="#79A6FE"/>
<path d="M63 14.9084C63 12.7499 64.7499 11 66.9084 11V11C68.4806 11 69.8998 11.942 70.5102 13.3909L73.9322 21.5127C73.9587 21.5756 74.0204 21.6166 74.0887 21.6166V21.6166C74.1571 21.6166 74.2187 21.5756 74.2453 21.5127L77.6672 13.3909C78.2777 11.942 79.6968 11 81.269 11V11C83.4276 11 85.1774 12.7499 85.1774 14.9084V27.1877C85.1774 28.5994 84.0331 29.7437 82.6214 29.7437V29.7437C81.2097 29.7437 80.0654 28.5994 80.0654 27.1877V18.9972C80.0654 18.9477 80.0252 18.9075 79.9757 18.9075V18.9075C79.939 18.9075 79.9061 18.9298 79.8924 18.9638L76.2026 28.1686C75.8566 29.0316 75.0204 29.5973 74.0907 29.5973V29.5973C73.159 29.5973 72.3214 29.0293 71.9768 28.1637L68.2849 18.8908C68.2713 18.8567 68.2384 18.8343 68.2017 18.8343V18.8343C68.1522 18.8343 68.1121 18.8744 68.1121 18.9239V27.1877C68.1121 28.5994 66.9677 29.7437 65.556 29.7437V29.7437C64.1444 29.7437 63 28.5994 63 27.1877V14.9084Z" fill="#79A6FE"/>
<path d="M89.8984 29.9634C88.9775 29.9634 88.1631 29.817 87.4551 29.5241C86.7535 29.2251 86.2022 28.7736 85.8012 28.1696C85.4003 27.5655 85.1998 26.7967 85.1998 25.8632C85.1998 25.0944 85.3345 24.4385 85.6039 23.8955C85.8733 23.3463 86.2492 22.8979 86.7315 22.5501C87.2139 22.2023 87.7746 21.9369 88.4137 21.7539C89.0589 21.5708 89.7543 21.4518 90.4998 21.3969C91.308 21.3359 91.9564 21.2627 92.4451 21.1773C92.94 21.0857 93.2971 20.9607 93.5163 20.802C93.7356 20.6373 93.8452 20.4207 93.8452 20.1522V20.1156C93.8452 19.7495 93.7012 19.4689 93.413 19.2736C93.1248 19.0784 92.7552 18.9807 92.3041 18.9807C91.8092 18.9807 91.4051 19.0875 91.0919 19.3011V19.3011C90.5476 19.6688 90.05 20.262 89.3932 20.262H88.2989C86.9298 20.262 85.8244 19.0291 86.6 17.9008V17.9008C87.1012 17.1747 87.831 16.5951 88.7895 16.1619C89.7481 15.7225 90.9446 15.5029 92.3793 15.5029C93.413 15.5029 94.3402 15.6219 95.1609 15.8598C95.9815 16.0917 96.6801 16.4181 97.2564 16.8391C97.8328 17.254 98.2713 17.7421 98.572 18.3035C98.879 18.8587 99.0325 19.4627 99.0325 20.1156V27.3193C99.0325 28.6583 97.947 29.7437 96.608 29.7437H95.172C94.6261 29.7437 94.1835 29.3012 94.1835 28.7553V27.8377C94.1835 27.7986 94.1518 27.7669 94.1127 27.7669V27.7669C94.0868 27.7669 94.0631 27.781 94.0504 27.8035C93.7661 28.3114 93.4221 28.7232 93.0183 29.039C92.6111 29.3624 92.1443 29.5973 91.6181 29.7437C91.0981 29.8902 90.5249 29.9634 89.8984 29.9634ZM91.5899 26.7784C91.9846 26.7784 92.3542 26.6991 92.6988 26.5405C93.0496 26.3818 93.3347 26.153 93.5539 25.854C93.7732 25.5551 93.8828 25.192 93.8828 24.7649V24.0618C93.8828 23.8373 93.6555 23.6822 93.4412 23.749V23.749C93.2908 23.7978 93.1279 23.8436 92.9525 23.8863C92.7834 23.929 92.6017 23.9687 92.4075 24.0053C92.2195 24.0419 92.0222 24.0755 91.8154 24.106C91.4145 24.167 91.0856 24.2677 90.8287 24.408C90.5781 24.5422 90.3902 24.71 90.2649 24.9114C90.1459 25.1066 90.0864 25.3263 90.0864 25.5703C90.0864 25.9608 90.2273 26.2598 90.5092 26.4672C90.7911 26.6747 91.1514 26.7784 91.5899 26.7784Z" fill="#79A6FE"/>
<path d="M102.252 29.7437C100.82 29.7437 99.6586 28.5825 99.6586 27.1501V18.2044C99.6586 16.8135 100.786 15.6859 102.177 15.6859H103.359C104.097 15.6859 104.696 16.2842 104.696 17.0222V18.2734C104.696 18.3203 104.734 18.3584 104.781 18.3584V18.3584C104.819 18.3584 104.853 18.3323 104.863 18.2952C105.127 17.3391 105.538 16.6371 106.096 16.1893C106.672 15.7317 107.346 15.5029 108.116 15.5029C108.342 15.5029 108.564 15.5212 108.783 15.5578V15.5578C109.173 15.6105 109.432 15.9651 109.432 16.3585V19.0357C109.432 19.5131 108.957 19.8675 108.483 19.8136V19.8136C108.107 19.7709 107.784 19.7495 107.515 19.7495C107.007 19.7495 106.55 19.8624 106.143 20.0882C105.742 20.3078 105.425 20.619 105.194 21.0217C104.962 21.4183 104.846 21.885 104.846 22.422V27.1501C104.846 28.5825 103.685 29.7437 102.252 29.7437V29.7437Z" fill="#79A6FE"/>
<path d="M116.26 23.5263C115.495 24.4791 113.957 23.9323 113.964 22.7101L113.976 20.8574C113.978 20.609 114.179 20.4085 114.428 20.4085V20.4085C114.571 20.4085 114.706 20.3406 114.791 20.2255L117.474 16.6008C117.9 16.0254 118.574 15.6859 119.289 15.6859V15.6859C121.181 15.6859 122.235 17.8727 121.056 19.3522L118.572 22.4696C118.282 22.8328 117.843 23.0443 117.379 23.0443H117.266C116.875 23.0443 116.505 23.2216 116.26 23.5263V23.5263ZM111.874 29.7437C110.441 29.7437 109.28 28.5825 109.28 27.1501V13.5936C109.28 12.1612 110.441 11 111.874 11V11C113.306 11 114.468 12.1612 114.468 13.5936V27.1501C114.468 28.5825 113.306 29.7437 111.874 29.7437V29.7437ZM119.598 29.7437C118.724 29.7437 117.915 29.2834 117.469 28.5322L115.815 25.7502C115.262 24.8203 115.393 23.6366 116.135 22.8495V22.8495C117.216 21.7025 119.088 21.8773 119.938 23.2047L121.684 25.9298C122.741 27.5787 121.557 29.7437 119.598 29.7437V29.7437Z" fill="#79A6FE"/>
<path d="M129.798 30C128.257 30 126.929 29.7132 125.814 29.1397C124.705 28.5601 123.85 27.7303 123.248 26.6503C122.653 25.5642 122.355 24.2646 122.355 22.7514C122.355 21.2993 122.656 20.0302 123.258 18.9441C123.859 17.8581 124.708 17.013 125.804 16.409C126.9 15.8049 128.194 15.5029 129.685 15.5029C130.775 15.5029 131.762 15.6676 132.645 15.9971C133.529 16.3266 134.284 16.8056 134.91 17.434C135.537 18.0564 136.019 18.8129 136.357 19.7038C136.696 20.5946 136.865 21.5983 136.865 22.7148V22.7148C136.865 23.3618 136.34 23.8863 135.693 23.8863H125.363C124.595 23.8863 123.972 23.2635 123.972 22.4952V22.4952C123.972 21.7269 124.595 21.104 125.363 21.104H130.966C131.584 21.104 132.118 20.5543 131.771 20.0424V20.0424C131.571 19.7312 131.298 19.4902 130.954 19.3194C130.616 19.1424 130.23 19.054 129.798 19.054C129.378 19.054 128.993 19.1424 128.642 19.3194C128.291 19.4902 128.009 19.7282 127.796 20.0332C127.59 20.3383 127.48 20.6952 127.467 21.104V24.106C127.467 24.5575 127.565 24.9602 127.759 25.3141C127.953 25.668 128.232 25.9456 128.595 26.1469C128.958 26.3483 129.397 26.4489 129.911 26.4489C130.268 26.4489 130.594 26.4001 130.888 26.3025C131.189 26.2049 131.446 26.0645 131.659 25.8815V25.8815C132.033 25.5486 132.46 25.2042 132.961 25.2042H134.035C135.516 25.2042 136.664 26.6169 135.709 27.7486V27.7486C135.101 28.4624 134.296 29.0177 133.294 29.4143C132.298 29.8048 131.132 30 129.798 30Z" fill="#79A6FE"/>
<path d="M143.906 15.6859C144.917 15.6859 145.737 16.5055 145.737 17.5164V17.5164C145.737 18.5273 144.917 19.3468 143.906 19.3468H138.057C137.046 19.3468 136.227 18.5273 136.227 17.5164V17.5164C136.227 16.5055 137.046 15.6859 138.057 15.6859H143.906ZM138.069 14.9115C138.069 13.4791 139.23 12.3179 140.662 12.3179V12.3179C142.095 12.3179 143.256 13.4791 143.256 14.9116V25.2225C143.256 25.4178 143.29 25.5825 143.359 25.7168C143.428 25.8449 143.535 25.9425 143.679 26.0096C143.823 26.0706 144.008 26.1012 144.233 26.1012C144.39 26.1012 144.572 26.0829 144.778 26.0462V26.0462C145.037 26.0019 145.293 26.1667 145.347 26.4231L145.787 28.5016C145.907 29.0677 145.568 29.6254 145.004 29.7529V29.7529C144.578 29.8505 144.07 29.9146 143.482 29.9451C142.291 30.0061 141.292 29.8871 140.484 29.5882C139.676 29.2831 139.068 28.8041 138.661 28.1513C138.254 27.4984 138.056 26.6808 138.069 25.6985V14.9115Z" fill="#79A6FE"/>
<path d="M63 34.0674C63 32.9256 63.9256 32 65.0674 32V32C65.9015 32 66.654 32.5013 66.9753 33.2711L68.7913 37.6226C68.8052 37.656 68.8378 37.6777 68.874 37.6777V37.6777C68.9102 37.6777 68.9428 37.656 68.9568 37.6226L70.7728 33.2711C71.0941 32.5013 71.8465 32 72.6807 32V32C73.8224 32 74.748 32.9256 74.748 34.0674V40.6701C74.748 41.4179 74.1418 42.0241 73.394 42.0241V42.0241C72.6462 42.0241 72.04 41.4179 72.04 40.6701V36.2764C72.04 36.2502 72.0188 36.2289 71.9926 36.2289V36.2289C71.9731 36.2289 71.9557 36.2408 71.9485 36.2588L69.9913 41.188C69.8097 41.6454 69.3673 41.9458 68.875 41.9458V41.9458C68.3818 41.9458 67.9387 41.6442 67.7577 41.1854L65.7995 36.2198C65.7924 36.2017 65.7749 36.1898 65.7554 36.1898V36.1898C65.7292 36.1898 65.708 36.211 65.708 36.2372V40.6701C65.708 41.4179 65.1018 42.0241 64.354 42.0241V42.0241C63.6062 42.0241 63 41.4179 63 40.6701V34.0674Z" fill="#79A6FE"/>
<path d="M77.2489 42.1416C76.761 42.1416 76.3296 42.0633 75.9546 41.9066C75.5829 41.7467 75.2909 41.5053 75.0785 41.1822C74.8661 40.8592 74.7599 40.448 74.7599 39.9488C74.7599 39.5377 74.8312 39.1869 74.9739 38.8965C75.1166 38.6028 75.3158 38.363 75.5713 38.177C75.8268 37.991 76.1239 37.849 76.4624 37.7511C76.8042 37.6532 77.1725 37.5896 77.5675 37.5602C77.9956 37.5276 78.3391 37.4885 78.5979 37.4428C78.8601 37.3938 79.0492 37.3269 79.1654 37.2421C79.2816 37.154 79.3396 37.0382 79.3396 36.8946V36.875C79.3396 36.6792 79.2633 36.5291 79.1106 36.4247C78.958 36.3203 78.7622 36.2681 78.5232 36.2681C78.2611 36.2681 78.047 36.3252 77.8811 36.4394V36.4394C77.5918 36.6368 77.3273 36.9533 76.9771 36.9533H76.4128C75.6813 36.9533 75.0899 36.2951 75.5016 35.6905V35.6905C75.7671 35.3022 76.1537 34.9922 76.6615 34.7605C77.1692 34.5256 77.8031 34.4081 78.5631 34.4081C79.1106 34.4081 79.6018 34.4718 80.0365 34.599C80.4713 34.723 80.8413 34.8976 81.1466 35.1227C81.452 35.3446 81.6843 35.6057 81.8436 35.9059C82.0062 36.2028 82.0875 36.5259 82.0875 36.875V40.7398C82.0875 41.4491 81.5125 42.0241 80.8032 42.0241H80.0475C79.7555 42.0241 79.5188 41.7874 79.5188 41.4955V41.0043C79.5188 40.9836 79.5021 40.9669 79.4814 40.9669V40.9669C79.4676 40.9669 79.455 40.9744 79.4484 40.9864C79.2978 41.258 79.1155 41.4783 78.9016 41.6472C78.6859 41.8202 78.4386 41.9458 78.1598 42.0241C77.8844 42.1024 77.5807 42.1416 77.2489 42.1416ZM78.1449 40.4383C78.354 40.4383 78.5498 40.3958 78.7323 40.311C78.9182 40.2262 79.0692 40.1038 79.1853 39.9439C79.3015 39.784 79.3595 39.5899 79.3595 39.3614V38.9833C79.3595 38.8645 79.239 38.7825 79.1256 38.8181V38.8181C79.0459 38.8443 78.9596 38.8687 78.8667 38.8916C78.7771 38.9144 78.6809 38.9356 78.578 38.9552C78.4784 38.9748 78.3739 38.9927 78.2644 39.009C78.052 39.0417 77.8778 39.0955 77.7417 39.1706C77.609 39.2423 77.5094 39.3321 77.443 39.4398C77.38 39.5442 77.3484 39.6616 77.3484 39.7922C77.3484 40.001 77.4231 40.1609 77.5724 40.2718C77.7218 40.3828 77.9126 40.4383 78.1449 40.4383Z" fill="#79A6FE"/>
<path d="M85.167 37.7952V40.6502C85.167 41.409 84.5519 42.0241 83.7931 42.0241V42.0241C83.0343 42.0241 82.4192 41.409 82.4192 40.6502V35.8103C82.4192 35.0899 83.0031 34.506 83.7234 34.506H84.313C84.7077 34.506 85.0276 34.826 85.0276 35.2206V35.8887C85.0276 35.9144 85.0485 35.9352 85.0742 35.9352V35.9352C85.094 35.9352 85.1116 35.9227 85.1184 35.904C85.2861 35.4425 85.5744 35.0793 85.9834 34.8144C86.4049 34.5435 86.896 34.4081 87.4569 34.4081C87.9978 34.4081 88.4674 34.5305 88.8656 34.7752C89.2672 35.0167 89.5775 35.3495 89.7965 35.7737C90.0189 36.1979 90.1284 36.6825 90.1251 37.2274V40.6502C90.1251 41.409 89.51 42.0241 88.7512 42.0241V42.0241C87.9924 42.0241 87.3772 41.409 87.3772 40.6502V37.7952C87.3806 37.4232 87.2843 37.1311 87.0885 36.9191C86.896 36.707 86.6272 36.6009 86.2821 36.6009C86.0564 36.6009 85.8589 36.6498 85.6897 36.7477C85.5238 36.8424 85.396 36.9794 85.3064 37.1589C85.2168 37.3351 85.1703 37.5472 85.167 37.7952Z" fill="#79A6FE"/>
<path d="M92.6309 42.1416C92.1431 42.1416 91.7116 42.0633 91.3366 41.9066C90.9649 41.7467 90.6729 41.5053 90.4605 41.1822C90.2481 40.8592 90.1419 40.448 90.1419 39.9488C90.1419 39.5377 90.2133 39.1869 90.356 38.8965C90.4987 38.6028 90.6978 38.363 90.9533 38.177C91.2089 37.991 91.5059 37.849 91.8444 37.7511C92.1862 37.6532 92.5546 37.5896 92.9495 37.5602C93.3776 37.5276 93.7211 37.4885 93.9799 37.4428C94.2421 37.3938 94.4313 37.3269 94.5474 37.2421C94.6636 37.154 94.7217 37.0382 94.7217 36.8946V36.875C94.7217 36.6792 94.6453 36.5291 94.4927 36.4247C94.34 36.3203 94.1442 36.2681 93.9053 36.2681C93.6431 36.2681 93.429 36.3252 93.2631 36.4394V36.4394C92.9738 36.6368 92.7093 36.9533 92.3591 36.9533H91.7948C91.0633 36.9533 90.4719 36.2951 90.8836 35.6905V35.6905C91.1491 35.3022 91.5357 34.9922 92.0435 34.7605C92.5512 34.5256 93.1851 34.4081 93.9451 34.4081C94.4927 34.4081 94.9838 34.4718 95.4186 34.599C95.8533 34.723 96.2233 34.8976 96.5287 35.1227C96.834 35.3446 97.0663 35.6057 97.2256 35.9059C97.3882 36.2028 97.4695 36.5259 97.4695 36.875V40.7398C97.4695 41.4491 96.8945 42.0241 96.1852 42.0241H95.4295C95.1375 42.0241 94.9009 41.7874 94.9009 41.4955V41.0043C94.9009 40.9836 94.8841 40.9669 94.8634 40.9669V40.9669C94.8497 40.9669 94.837 40.9744 94.8304 40.9864C94.6798 41.258 94.4975 41.4783 94.2836 41.6472C94.0679 41.8202 93.8206 41.9458 93.5419 42.0241C93.2664 42.1024 92.9628 42.1416 92.6309 42.1416ZM93.5269 40.4383C93.736 40.4383 93.9318 40.3958 94.1143 40.311C94.3002 40.2262 94.4512 40.1038 94.5673 39.9439C94.6835 39.784 94.7416 39.5899 94.7416 39.3614V38.9833C94.7416 38.8645 94.621 38.7825 94.5076 38.8181V38.8181C94.4279 38.8443 94.3417 38.8687 94.2487 38.8916C94.1591 38.9144 94.0629 38.9356 93.96 38.9552C93.8605 38.9748 93.7559 38.9927 93.6464 39.009C93.434 39.0417 93.2598 39.0955 93.1237 39.1706C92.991 39.2423 92.8914 39.3321 92.825 39.4398C92.762 39.5442 92.7305 39.6616 92.7305 39.7922C92.7305 40.001 92.8051 40.1609 92.9545 40.2718C93.1038 40.3828 93.2946 40.4383 93.5269 40.4383Z" fill="#79A6FE"/>
<path d="M101.485 45C100.718 45 100.061 44.8923 99.5136 44.677C98.9693 44.4649 98.5462 44.1712 98.2442 43.7959V43.7959C97.7715 43.2072 98.3855 42.5136 99.1406 42.5136H99.9464C100.202 42.5136 100.401 42.7269 100.589 42.9002V42.9002C100.695 42.9981 100.831 43.0683 100.997 43.1107C101.166 43.1564 101.355 43.1792 101.565 43.1792C101.92 43.1792 102.213 43.0944 102.446 42.9247C102.681 42.755 102.799 42.4483 102.799 42.0045V40.7793C102.799 40.7531 102.778 40.7319 102.752 40.7319V40.7319C102.732 40.7319 102.715 40.7439 102.707 40.7619C102.608 41.0035 102.459 41.2105 102.261 41.3829C102.056 41.5591 101.808 41.6945 101.52 41.7892C101.231 41.8805 100.914 41.9262 100.569 41.9262C100.025 41.9262 99.5236 41.8022 99.0656 41.5542C98.6109 41.3062 98.2459 40.913 97.9704 40.3746C97.6983 39.8362 97.5622 39.133 97.5622 38.2651C97.5622 37.3579 97.7049 36.6205 97.9903 36.0527C98.2791 35.4849 98.6508 35.0689 99.1054 34.8046C99.5634 34.5403 100.045 34.4081 100.549 34.4081C100.927 34.4081 101.259 34.4734 101.545 34.6039C101.83 34.7312 102.069 34.9025 102.261 35.1178C102.448 35.3237 102.591 35.5495 102.691 35.7953C102.696 35.8088 102.709 35.8178 102.724 35.8178V35.8178C102.743 35.8178 102.759 35.8019 102.759 35.7823V35.1619C102.759 34.7997 103.053 34.506 103.415 34.506H104.133C104.892 34.506 105.507 35.1212 105.507 35.8799V42.0045C105.507 42.6408 105.34 43.1808 105.004 43.6246C104.672 44.0717 104.205 44.4127 103.601 44.6476C102.997 44.8825 102.291 45 101.485 45ZM101.584 40.0075C101.837 40.0075 102.052 39.939 102.232 39.802C102.414 39.6616 102.553 39.4626 102.65 39.2048C102.749 38.9438 102.799 38.6305 102.799 38.2651C102.799 37.8931 102.749 37.5749 102.65 37.3106C102.553 37.043 102.414 36.8391 102.232 36.6988C102.052 36.5552 101.837 36.4834 101.584 36.4834C101.332 36.4834 101.117 36.5552 100.937 36.6988C100.761 36.8391 100.625 37.043 100.529 37.3106C100.436 37.5749 100.39 37.8931 100.39 38.2651C100.39 38.637 100.436 38.9536 100.529 39.2146C100.625 39.4724 100.761 39.6698 100.937 39.8069C101.117 39.9406 101.332 40.0075 101.584 40.0075Z" fill="#79A6FE"/>
<path d="M109.587 42.1611C108.771 42.1611 108.067 42.0078 107.477 41.7011C106.889 41.3911 106.436 40.9473 106.118 40.3697C105.802 39.7889 105.645 39.0939 105.645 38.2846C105.645 37.508 105.804 36.8293 106.123 36.2485C106.441 35.6677 106.891 35.2157 107.472 34.8927C108.052 34.5697 108.738 34.4081 109.527 34.4081C110.105 34.4081 110.628 34.4962 111.096 34.6724C111.563 34.8486 111.963 35.1048 112.295 35.4409C112.627 35.7737 112.883 36.1783 113.062 36.6547C113.241 37.1311 113.331 37.6679 113.331 38.2651V38.2651C113.331 38.6111 113.05 38.8916 112.704 38.8916H107.245C106.834 38.8916 106.501 38.5585 106.501 38.1476V38.1476C106.501 37.7367 106.834 37.4036 107.245 37.4036H110.201C110.531 37.4036 110.817 37.1102 110.633 36.8358V36.8358C110.526 36.6694 110.382 36.5405 110.199 36.4492C110.02 36.3545 109.816 36.3072 109.587 36.3072C109.365 36.3072 109.161 36.3545 108.975 36.4492C108.789 36.5405 108.64 36.6678 108.527 36.8309C108.417 36.9941 108.359 37.185 108.353 37.4036V39.009C108.353 39.2505 108.404 39.4659 108.507 39.6551C108.61 39.8444 108.758 39.9928 108.95 40.1005C109.143 40.2082 109.375 40.262 109.647 40.262C109.836 40.262 110.009 40.2359 110.165 40.1837C110.324 40.1315 110.46 40.0565 110.573 39.9586V39.9586C110.772 39.7803 110.998 39.5964 111.266 39.5964H111.82C112.611 39.5964 113.226 40.3502 112.718 40.9571V40.9571C112.396 41.3389 111.97 41.6358 111.439 41.8479C110.911 42.0567 110.294 42.1611 109.587 42.1611Z" fill="#79A6FE"/>
<path d="M114.845 42.0241C114.086 42.0241 113.471 41.409 113.471 40.6502V35.8103C113.471 35.0899 114.055 34.506 114.775 34.506H115.365C115.759 34.506 116.079 34.826 116.079 35.2206V35.8888C116.079 35.9145 116.1 35.9352 116.126 35.9352V35.9352C116.145 35.9352 116.163 35.9225 116.17 35.9038C116.33 35.4487 116.599 35.0872 116.975 34.8193C117.36 34.5452 117.818 34.4081 118.349 34.4081C118.887 34.4081 119.35 34.5484 119.738 34.8291C120.115 35.0981 120.346 35.4531 120.432 35.894C120.437 35.9178 120.458 35.9352 120.482 35.9352V35.9352C120.504 35.9352 120.524 35.9204 120.53 35.899C120.664 35.4558 120.936 35.0991 121.346 34.8291C121.767 34.5484 122.262 34.4081 122.829 34.4081C123.563 34.4081 124.157 34.6398 124.611 35.1032C125.069 35.5665 125.298 36.1832 125.298 36.9533V40.6502C125.298 41.409 124.683 42.0241 123.924 42.0241V42.0241C123.166 42.0241 122.551 41.409 122.551 40.6502V37.6386C122.551 37.309 122.466 37.0512 122.297 36.8652C122.127 36.676 121.9 36.5813 121.615 36.5813C121.333 36.5813 121.109 36.676 120.943 36.8652C120.78 37.0512 120.699 37.309 120.699 37.6386V40.7099C120.699 41.4357 120.11 42.0241 119.385 42.0241V42.0241C118.659 42.0241 118.07 41.4357 118.07 40.7099V37.6386C118.07 37.309 117.986 37.0512 117.816 36.8652C117.647 36.676 117.42 36.5813 117.134 36.5813C116.945 36.5813 116.783 36.6237 116.647 36.7086C116.511 36.7934 116.404 36.9158 116.328 37.0757C116.255 37.2323 116.219 37.4199 116.219 37.6386V40.6502C116.219 41.409 115.603 42.0241 114.845 42.0241V42.0241Z" fill="#79A6FE"/>
<path d="M129.336 42.1611C128.52 42.1611 127.816 42.0078 127.225 41.7011C126.638 41.3911 126.185 40.9473 125.866 40.3697C125.551 39.7889 125.394 39.0939 125.394 38.2846C125.394 37.508 125.553 36.8293 125.871 36.2485C126.19 35.6677 126.64 35.2157 127.221 34.8927C127.801 34.5697 128.487 34.4081 129.276 34.4081C129.854 34.4081 130.377 34.4962 130.844 34.6724C131.312 34.8486 131.712 35.1048 132.044 35.4409C132.376 35.7737 132.632 36.1783 132.811 36.6547C132.99 37.1311 133.08 37.6679 133.08 38.2651V38.2651C133.08 38.6111 132.799 38.8916 132.453 38.8916H126.994C126.583 38.8916 126.25 38.5585 126.25 38.1476V38.1476C126.25 37.7367 126.583 37.4036 126.994 37.4036H129.95C130.28 37.4036 130.566 37.1102 130.382 36.8358V36.8358C130.275 36.6694 130.131 36.5405 129.948 36.4492C129.769 36.3545 129.565 36.3072 129.336 36.3072C129.114 36.3072 128.91 36.3545 128.724 36.4492C128.538 36.5405 128.389 36.6678 128.276 36.8309C128.166 36.9941 128.108 37.185 128.102 37.4036V39.009C128.102 39.2505 128.153 39.4659 128.256 39.6551C128.359 39.8444 128.506 39.9928 128.699 40.1005C128.891 40.2082 129.124 40.262 129.396 40.262C129.585 40.262 129.758 40.2359 129.914 40.1837C130.073 40.1315 130.209 40.0565 130.322 39.9586V39.9586C130.521 39.7803 130.747 39.5964 131.014 39.5964H131.569C132.36 39.5964 132.975 40.3502 132.467 40.9571V40.9571C132.145 41.3389 131.719 41.6358 131.188 41.8479C130.66 42.0567 130.043 42.1611 129.336 42.1611Z" fill="#79A6FE"/>
<path d="M135.967 37.7952V40.6502C135.967 41.409 135.352 42.0241 134.594 42.0241V42.0241C133.835 42.0241 133.22 41.409 133.22 40.6502V35.8103C133.22 35.0899 133.804 34.506 134.524 34.506H135.113C135.508 34.506 135.828 34.826 135.828 35.2206V35.8887C135.828 35.9144 135.849 35.9352 135.875 35.9352V35.9352C135.894 35.9352 135.912 35.9227 135.919 35.904C136.087 35.4425 136.375 35.0793 136.784 34.8144C137.205 34.5435 137.696 34.4081 138.257 34.4081C138.798 34.4081 139.268 34.5305 139.666 34.7752C140.068 35.0167 140.378 35.3495 140.597 35.7737C140.819 36.1979 140.929 36.6825 140.926 37.2274V40.6502C140.926 41.409 140.31 42.0241 139.552 42.0241V42.0241C138.793 42.0241 138.178 41.409 138.178 40.6502V37.7952C138.181 37.4232 138.085 37.1311 137.889 36.9191C137.696 36.707 137.428 36.6009 137.083 36.6009C136.857 36.6009 136.659 36.6498 136.49 36.7477C136.324 36.8424 136.196 36.9794 136.107 37.1589C136.017 37.3351 135.971 37.5472 135.967 37.7952Z" fill="#79A6FE"/>
<path d="M144.882 34.506C145.422 34.506 145.861 34.9443 145.861 35.4849V35.4849C145.861 36.0256 145.422 36.4639 144.882 36.4639H141.802C141.261 36.4639 140.823 36.0256 140.823 35.4849V35.4849C140.823 34.9443 141.261 34.506 141.802 34.506H144.882ZM141.799 34.0787C141.799 33.3199 142.414 32.7048 143.173 32.7048V32.7048C143.931 32.7048 144.546 33.3199 144.546 34.0787V39.6062C144.546 39.7106 144.565 39.7987 144.601 39.8705C144.638 39.939 144.694 39.9912 144.77 40.0271C144.847 40.0597 144.945 40.0761 145.064 40.0761C145.147 40.0761 145.243 40.0663 145.353 40.0467V40.0467C145.49 40.023 145.625 40.1103 145.654 40.246L145.888 41.3644C145.951 41.6649 145.772 41.9607 145.472 42.029V42.029C145.247 42.0812 144.978 42.1155 144.666 42.1318C144.035 42.1644 143.506 42.1008 143.078 41.9409C142.65 41.7777 142.328 41.5216 142.112 41.1724C141.896 40.8233 141.792 40.386 141.799 39.8607V34.0787Z" fill="#79A6FE"/>
</svg>
