<svg width="100" height="89" viewBox="0 0 100 89" fill="none" xmlns="http://www.w3.org/2000/svg">
<path d="M14 42.5C22.4509 63 17 63 15.5 64.5L12.5 66L22 71.1548L21.9509 70.1548C21.6149 66.6709 22.1191 63.6428 22.5 62.5C22.9 61.3 24.5 58.3452 25.5 56.5L21 54.6548L14 42.5Z" fill="#5C6BC0"/>
<path d="M22 70.6548C21.9841 70.496 21.9677 70.329 21.9509 70.1548M21.9509 70.1548C21.6149 66.6709 22.1191 63.6428 22.5 62.5C22.9 61.3 24.5 58.3452 25.5 56.5L21 54.6548L14 42.5C22.4509 63 17 63 15.5 64.5L12.5 66L22 71.1548L21.9509 70.1548Z" stroke="#5C6BC0"/>
<path d="M23.5 76.1546C23.5 82.5059 18.3513 87.6546 12 87.6546C5.64873 87.6546 0.5 82.5059 0.5 76.1546C0.5 69.8034 5.64873 64.6546 12 64.6546C18.3513 64.6546 23.5 69.8034 23.5 76.1546ZM34.6627 31.9174L56.5331 69.7979C59.7472 75.365 57.8398 82.4835 52.2728 85.6977C46.7057 88.9118 39.5872 87.0044 36.373 81.4373L14.5027 43.5568C11.2886 37.9898 13.196 30.8712 18.763 27.6571C24.3301 24.443 31.4486 26.3504 34.6627 31.9174ZM60.3077 6.32173L97.5331 70.798C100.747 76.365 98.8398 83.4836 93.2728 86.6977C87.7057 89.9118 80.5872 88.0044 77.3731 82.4374L40.1477 17.9611C36.9335 12.3941 38.8409 5.27554 44.408 2.06141C49.975 -1.15272 57.0936 0.75469 60.3077 6.32173Z" fill="#5C6BC0" stroke="#5C6BC0"/>
<path d="M48 48.1544C48.4 51.3544 46.8333 52.4877 46 52.6544C47.8333 58.8211 55 75.5998 57 75.9998C59.5 76.4998 56.4286 67.4998 54.5 62.9998C53 59.4998 48.5 41.9998 49.5 39.4998C50.3 37.4998 52 36.1545 53 36.1544C49 28.9878 37.1811 8.22417 39 15.4998C40.5 21.5 47.5 44.1544 48 48.1544Z" fill="#5C6BC0" stroke="#5C6BC0"/>
</svg>
